<?xml version="1.0" encoding="UTF-8"?><svg id="_3Color" xmlns="http://www.w3.org/2000/svg" viewBox="0 0 1200 1200"><defs><style>.cls-1{fill:#f6871f;}.cls-2{fill:#ffc63e;}.cls-3{fill:#d55a1f;}</style></defs><path class="cls-1" d="M449.99,714.45l201.26-287.43c11.46-16.37,34.02-20.34,50.38-8.88l96.25,67.39-201.26,287.43c-11.46,16.37-34.02,20.34-50.38,8.88l-96.25-67.39Z"/><path class="cls-1" d="M245.7,714.45l201.26-287.43c11.46-16.37,34.02-20.34,50.38-8.88l96.25,67.39-201.26,287.43c-11.46,16.37-34.02,20.34-50.38,8.88l-96.25-67.39Z"/><path class="cls-3" d="M128.56,589.94l114.09-162.94c11.46-16.37,34.02-20.34,50.38-8.88l66.61,46.64c16.37,11.46,20.34,34.02,8.88,50.38l-134.84,192.57-96.25-67.39c-16.37-11.46-20.34-34.02-8.88-50.38Z"/><path class="cls-2" d="M654.28,714.45l201.26-287.43c11.46-16.37,34.02-20.34,50.38-8.88l96.25,67.39-201.26,287.43c-11.46,16.37-34.02,20.34-50.38,8.88l-96.25-67.39Z"/><path class="cls-2" d="M858.61,714.49l72.74-103.88c11.46-16.37,34.02-20.34,50.38-8.88l96.25,67.39-72.74,103.88c-11.46,16.37-34.02,20.34-50.38,8.88l-96.25-67.39Z"/></svg>